<svg width="24" height="24" viewBox="0 0 24 24" fill="none" xmlns="http://www.w3.org/2000/svg">
<g clip-path="url(#clip0_2292_1921)">
<path d="M18.39 14.56C16.71 13.7 14.53 13 12 13C9.47 13 7.29 13.7 5.61 14.56C4.61 15.07 4 16.1 4 17.22V20H20V17.22C20 16.1 19.39 15.07 18.39 14.56Z" fill="#243837"/>
<path d="M12 12C14.21 12 16 10.21 16 8C16 6.63 16 4.5 16 4.5C16 3.67 15.33 3 14.5 3C13.98 3 13.52 3.27 13.25 3.67C12.98 3.27 12.52 3 12 3C11.48 3 11.02 3.27 10.75 3.67C10.48 3.27 10.02 3 9.5 3C8.67 3 8 3.67 8 4.5C8 4.5 8 6.62 8 8C8 10.21 9.79 12 12 12Z" fill="#243837"/>
</g>
<defs>
<clipPath id="clip0_2292_1921">
<rect width="24" height="24" fill="white"/>
</clipPath>
</defs>
</svg>
